<mxfile host="65bd71144e">
    <diagram id="p0TErCVPu_Gn8-FU_rV2" name="Page-1">
        <mxGraphModel dx="576" dy="440" grid="1" gridSize="10" guides="1" tooltips="1" connect="1" arrows="1" fold="1" page="1" pageScale="1" pageWidth="850" pageHeight="1100" math="0" shadow="0">
            <root>
                <mxCell id="0"/>
                <mxCell id="1" parent="0"/>
                <mxCell id="11" value="Actor" style="shape=umlActor;verticalLabelPosition=bottom;verticalAlign=top;html=1;outlineConnect=0;strokeColor=#F0F0F0;" parent="1" vertex="1">
                    <mxGeometry x="220" y="690" width="100" height="190" as="geometry"/>
                </mxCell>
                <mxCell id="14" value="" style="ellipse;whiteSpace=wrap;html=1;aspect=fixed;strokeColor=#F0F0F0;" parent="1" vertex="1">
                    <mxGeometry x="70" y="720" width="80" height="80" as="geometry"/>
                </mxCell>
                <mxCell id="17" value="" style="triangle;whiteSpace=wrap;html=1;strokeColor=#F0F0F0;" parent="1" vertex="1">
                    <mxGeometry x="430" y="770" width="60" height="80" as="geometry"/>
                </mxCell>
                <mxCell id="18" value="Actor" style="shape=umlActor;verticalLabelPosition=bottom;verticalAlign=top;html=1;outlineConnect=0;strokeColor=#F0F0F0;" parent="1" vertex="1">
                    <mxGeometry x="220" y="690" width="100" height="190" as="geometry"/>
                </mxCell>
                <mxCell id="20" value="" style="ellipse;whiteSpace=wrap;html=1;aspect=fixed;strokeColor=#F0F0F0;" parent="1" vertex="1">
                    <mxGeometry x="70" y="720" width="80" height="80" as="geometry"/>
                </mxCell>
                <mxCell id="23" value="" style="triangle;whiteSpace=wrap;html=1;strokeColor=#F0F0F0;" parent="1" vertex="1">
                    <mxGeometry x="430" y="770" width="60" height="80" as="geometry"/>
                </mxCell>
            </root>
        </mxGraphModel>
    </diagram>
</mxfile>